<?xml version="1.0" standalone="no"?>
<!DOCTYPE svg PUBLIC "-//W3C//DTD SVG 1.1//EN" "http://www.w3.org/Graphics/SVG/1.1/DTD/svg11.dtd" >
<svg xmlns="http://www.w3.org/2000/svg">
<metadata>
Created by FontForge 20120731 at Thu Feb 16 11:18:04 2017
 By admin
</metadata>
<defs>
<font id="iconfont" horiz-adv-x="1024" >
  <font-face 
    font-family="iconfont"
    font-weight="500"
    font-stretch="normal"
    units-per-em="1024"
    panose-1="2 0 6 3 0 0 0 0 0 0"
    ascent="896"
    descent="-128"
    x-height="792"
    bbox="-1 -211 1024 896"
    underline-thickness="0"
    underline-position="0"
    unicode-range="U+0078-E7B9"
  />
<missing-glyph 
 />
    <glyph glyph-name=".notdef" 
 />
    <glyph glyph-name=".notdef" 
 />
    <glyph glyph-name=".null" horiz-adv-x="0" 
 />
    <glyph glyph-name="nonmarkingreturn" horiz-adv-x="341" 
 />
    <glyph glyph-name="x" unicode="x" horiz-adv-x="1001" 
d="M281 543q-27 -1 -53 -1h-83q-18 0 -36.5 -6t-32.5 -18.5t-23 -32t-9 -45.5v-76h912v41q0 16 -0.5 30t-0.5 18q0 13 -5 29t-17 29.5t-31.5 22.5t-49.5 9h-133v-97h-438v97zM955 310v-52q0 -23 0.5 -52t0.5 -58t-10.5 -47.5t-26 -30t-33 -16t-31.5 -4.5q-14 -1 -29.5 -0.5
t-29.5 0.5h-32l-45 128h-439l-44 -128h-29h-34q-20 0 -45 1q-25 0 -41 9.5t-25.5 23t-13.5 29.5t-4 30v167h911zM163 247q-12 0 -21 -8.5t-9 -21.5t9 -21.5t21 -8.5q13 0 22 8.5t9 21.5t-9 21.5t-22 8.5zM316 123q-8 -26 -14 -48q-5 -19 -10.5 -37t-7.5 -25t-3 -15t1 -14.5
t9.5 -10.5t21.5 -4h37h67h81h80h64h36q23 0 34 12t2 38q-5 13 -9.5 30.5t-9.5 34.5q-5 19 -11 39h-368zM336 498v228q0 11 2.5 23t10 21.5t20.5 15.5t34 6h188q31 0 51.5 -14.5t20.5 -52.5v-227h-327z" />
    <glyph glyph-name="tuichu" unicode="&#xe600;" horiz-adv-x="1000" 
d="M1000 365l-191 -176v114h-314v124h314v114zM674 759h-576l307 -130v-616h269v248h45v-290h-314v-171l-405 171v829h719v-332h-45v291v0zM674 759z" />
    <glyph glyph-name="moban162" unicode="&#xe602;" 
d="M128 172v-256h256zM192 236l448 448l256 -256l-450 -450z" />
    <glyph glyph-name="101" unicode="&#xe61b;" 
d="M511 813q-104 0 -198.5 -40.5t-163.5 -109t-109.5 -163.5t-40.5 -199t40.5 -199t109.5 -163.5t163.5 -109t198.5 -40.5t199 40.5t163.5 109t109 163.5t40.5 199t-40.5 199t-109 163.5t-163.5 109t-199 40.5zM81 301q0 155 99 275l606 -606q-119 -100 -275 -100
q-117 0 -216 57.5t-156.5 157t-57.5 216.5zM844 27l-607 606q119 98 274 98q117 0 216.5 -57.5t157 -156.5t57.5 -216q0 -155 -98 -274z" />
    <glyph glyph-name="yonghu" unicode="&#xe61e;" 
d="M592 -140h-179h-83t-70 2.5t-63.5 8t-44 14.5t-33 24.5t-9.5 36.5v17q0 124 88.5 211t214.5 87h179q126 0 214.5 -87.5t88.5 -210.5v-17q0 -16 -5.5 -28.5t-19.5 -21.5t-27 -15.5t-39 -10.5t-44 -6t-52.5 -3t-54.5 -1h-61zM493.5 284q-99.5 0 -169.5 69.5t-70 167t70 167
t169.5 69.5t169.5 -69.5t70 -167t-70 -167t-169.5 -69.5z" />
    <glyph glyph-name="yifu" unicode="&#xe652;" 
d="M966 501l-174 175q-21 20 -50 18h-5h-93l-6 -3q-54 -30 -124 -30t-124 30l-6 3h-93q-38 0 -56 -33l-173 -173q-18 -18 -18 -44t18 -45l126 -126q17 -16 39 -18v-304q0 -26 19 -45t45 -19h446q26 0 45 19t19 45v317q23 2 39 18l126 126q18 19 18 45t-18 44z" />
    <glyph glyph-name="chakan" unicode="&#xe601;" 
d="M960 291q1 5 -1 13.5t-5 14.5l-3 6q-32 95 -121 165q-133 103 -319 103t-319 -103q-89 -70 -121 -165q-1 -3 -3 -7t-4.5 -13t-1.5 -14q-1 -4 1.5 -12.5t5 -14.5l2.5 -6q32 -95 121 -165q133 -103 319 -103t319 103q89 70 121 165l1 2.5t3 6.5t3 8t2 8.5t0 7.5zM511 58
q-138 0 -244 66.5t-134 166.5q28 101 134 167.5t244 66.5t244.5 -66.5t134.5 -167.5q-28 -100 -134.5 -166.5t-244.5 -66.5zM511 148q-59 0 -101 42t-42 101.5t42 101.5t101 42t101 -42t42 -101.5t-42 -101.5t-101 -42zM511 366q-31 0 -52.5 -22t-21.5 -52.5t21.5 -52.5
t52.5 -22t53 22t22 52.5t-22 52.5t-53 22z" />
    <glyph glyph-name="augiclingdaihou" unicode="&#xe629;" 
d="M397 534q4 -9 14 -9h131q10 0 14 9l103 207q4 7 -0.5 14.5t-12.5 7.5h-326q-8 0 -12.5 -7t-1.5 -15zM556 483q-4 11 -15 11h-130q-11 0 -15 -11l-128 -436q-3 -9 4 -15l194 -191q4 -4 10.5 -4t10.5 4l194 191q7 6 4 15zM570 476l126 -336h61v71z" />
    <glyph glyph-name="youceshiyan" unicode="&#xe646;" 
d="M925 -42l-211 456v112h46v88h-496v-88h40v-113l-206 -455q-16 -37 6 -71.5t63 -34.5h690q41 0 63 34.5t5 71.5zM170 -65l209 462v129h260v-129l215 -462h-684zM379 221q-1 1 -30.5 -60.5t-59 -123.5l-29.5 -62h504l-141 294q-6 -6 -16 -15.5t-40.5 -29.5t-59 -30
t-64.5 -5t-64 32zM533 353q26 0 44.5 18.5t18.5 44.5t-18.5 44.5t-44.5 18.5t-44.5 -18.5t-18.5 -44.5t18.5 -44.5t44.5 -18.5zM554 664q17 0 29.5 12t12.5 29.5t-12.5 30t-29.5 12.5t-29.5 -12.5t-12.5 -30t12.5 -29.5t29.5 -12zM470 227q17 0 29.5 12.5t12.5 29.5
t-12.5 29.5t-29.5 12.5t-29.5 -12.5t-12.5 -29.5t12.5 -29.5t29.5 -12.5z" />
    <glyph glyph-name="xiaoxi" unicode="&#xe605;" 
d="M61 583q0 14 10.5 24.5t25.5 10.5h847q15 0 25 -10.5t10 -24.5v-566q0 -14 -10 -24.5t-25 -10.5h-847q-15 0 -25.5 10.5t-10.5 24.5v566zM222 410l283 -140l15 -8l16 8l283 140q13 6 17.5 20t-2 27t-20.5 17.5t-27 -1.5l-282 -140h31l-282 140q-14 6 -27.5 1.5t-20 -17.5
t-2 -27t17.5 -20z" />
    <glyph glyph-name="jia" unicode="&#xe631;" 
d="M860 470h-272v272h-136v-272h-272v-136h272v-272h136v272h272v136z" />
    <glyph glyph-name="yonghu1" unicode="&#xe632;" 
d="M526 352q-85 0 -145.5 60.5t-60.5 145.5t60.5 145t145.5 60t145 -60t60 -145t-60 -145.5t-145 -60.5zM525.5 716q-65.5 0 -111.5 -46.5t-46 -111.5t46 -111.5t111.5 -46.5t112 46.5t46.5 111.5t-46.5 111.5t-112 46.5zM901 11h-48q0 91 -45 168.5t-122 122t-168 44.5
t-168 -44.5t-122 -122t-45 -168.5h-48q0 78 30 149q30 69 83 122t121 82q71 30 149 30t149 -30q69 -29 122 -82t82 -122q30 -71 30 -149zM125 65h764v-48h-764v48z" />
    <glyph glyph-name="msnui-operate" unicode="&#xe787;" 
d="M121 845v0v0v0zM121 845zM376 611q0 63 -46 107t-111 44t-111 -44t-46 -107q0 -61 44 -104q-11 -46 -11 -93q0 -106 53 -196t143 -144l31 124q-49 39 -76.5 95.5t-27.5 120.5q0 24 3 46q65 1 110 45t45 106v0v0v0zM510 695q80 0 149 -39q-11 -26 -11 -54q0 -63 46 -107
t111 -44t111 44t46 106.5t-46 107t-111 44.5q-30 0 -57 -11q-107 72 -238 72q-88 0 -168 -34l72 -100q47 15 96 15v0v0v0zM803 401q-4 -76 -46 -139t-110 -97q-20 37 -57.5 59.5t-82.5 22.5q-65 0 -111 -44t-46 -106.5t46 -107t111 -44.5q48 0 87.5 25.5t57.5 67.5
q121 42 197.5 145t76.5 231q0 12 -1 26zM803 401zM121 845v0v0v0zM121 845zM376 611q0 63 -46 107t-111 44t-111 -44t-46 -107q0 -61 44 -104q-11 -46 -11 -93q0 -106 53 -196t143 -144l31 124q-49 39 -76.5 95.5t-27.5 120.5q0 24 3 46q65 1 110 45t45 106v0v0v0zM510 695
q80 0 149 -39q-11 -26 -11 -54q0 -63 46 -107t111 -44t111 44t46 106.5t-46 107t-111 44.5q-30 0 -57 -11q-107 72 -238 72q-88 0 -168 -34l72 -100q47 15 96 15v0v0v0zM803 401q-4 -76 -46 -139t-110 -97q-20 37 -57.5 59.5t-82.5 22.5q-65 0 -111 -44t-46 -106.5t46 -107
t111 -44.5q48 0 87.5 25.5t57.5 67.5q121 42 197.5 145t76.5 231q0 12 -1 26zM803 401zM121 845v0v0v0zM121 845zM376 611q0 63 -46 107t-111 44t-111 -44t-46 -107q0 -61 44 -104q-11 -46 -11 -93q0 -106 53 -196t143 -144l31 124q-49 39 -76.5 95.5t-27.5 120.5q0 24 3 46
q65 1 110 45t45 106v0v0v0zM510 695q80 0 149 -39q-11 -26 -11 -54q0 -63 46 -107t111 -44t111 44t46 106.5t-46 107t-111 44.5q-30 0 -57 -11q-107 72 -238 72q-88 0 -168 -34l72 -100q47 15 96 15v0v0v0zM803 401q-4 -76 -46 -139t-110 -97q-20 37 -57.5 59.5t-82.5 22.5
q-65 0 -111 -44t-46 -106.5t46 -107t111 -44.5q48 0 87.5 25.5t57.5 67.5q121 42 197.5 145t76.5 231q0 12 -1 26zM803 401z" />
    <glyph glyph-name="yuancailiaopandian" unicode="&#xe612;" horiz-adv-x="1026" 
d="M208 358q-6 -1 -10.5 -5.5t-4.5 -9.5v-61q0 -6 5.5 -10.5t13.5 -4.5h146q7 0 12.5 4.5t5.5 10.5v61q0 6 -5.5 10.5t-12.5 4.5h-146h-4v0v0v0zM445 358q-6 -1 -10.5 -5.5t-3.5 -9.5v-61q0 -6 5.5 -10.5t12.5 -4.5h146q7 0 12.5 4.5t5.5 10.5v61q0 6 -5.5 10.5t-12.5 4.5
h-146h-4v0v0v0zM682 358q-6 -1 -10 -5.5t-4 -9.5v-61q0 -6 5.5 -10.5t12.5 -4.5h146q7 0 12.5 4.5t5.5 10.5v61q0 6 -5.5 10.5t-12.5 4.5h-146h-4v0v0zM208 503q-6 -1 -10.5 -5t-4.5 -9v-61q0 -6 5.5 -10.5t13.5 -4.5h146q7 0 12.5 4.5t5.5 10.5v61q0 5 -5.5 9.5t-12.5 4.5
h-146q-2 1 -4 0v0v0v0zM445 503q-6 -1 -10.5 -5t-3.5 -9v-61q0 -6 5.5 -10.5t12.5 -4.5h146q7 -1 12.5 4t5.5 11v61q0 6 -5.5 10.5t-12.5 3.5h-146q-2 1 -4 0v0v0v0zM682 503q-6 -1 -10 -5t-4 -9v-61q0 -6 5.5 -10.5t12.5 -4.5h146q7 0 12.5 4.5t5.5 10.5v61q0 5 -5.5 9.5
t-12.5 4.5h-146q-2 1 -4 0v0v0zM208 649q-6 -1 -10.5 -5.5t-4.5 -9.5v-61q0 -6 5.5 -10.5t13.5 -4.5h146q7 0 12.5 4.5t5.5 10.5v61q0 6 -5.5 10.5t-12.5 4.5h-146h-4v0v0v0zM445 649q-6 -1 -10.5 -5.5t-3.5 -9.5v-61q0 -6 5.5 -10.5t12.5 -4.5h146q7 0 12.5 4.5t5.5 10.5
v61q0 6 -5.5 10.5t-12.5 4.5h-146h-4v0v0v0zM682 649q-6 -1 -10 -5.5t-4 -9.5v-61q0 -6 5.5 -10.5t12.5 -4.5h146q7 0 12.5 4.5t5.5 10.5v61q0 6 -5.5 10.5t-12.5 4.5h-146h-4v0v0zM445 796q-6 -1 -10.5 -5.5t-3.5 -9.5v-61q0 -6 5.5 -10.5t12.5 -4.5h146q7 0 12.5 4.5
t5.5 10.5v61q0 6 -5.5 10.5t-12.5 4.5h-146h-4v0v0v0zM210 105q-7 0 -12 -5t-5 -10v-61q0 -6 5.5 -10.5t13.5 -4.5h146q7 0 12.5 4.5t5.5 10.5v61q0 6 -5.5 10.5t-12.5 4.5h-146h-2v0v0v0zM447 105q-7 0 -11.5 -5t-4.5 -10v-61q0 -6 5.5 -10.5t12.5 -4.5h146q7 0 12.5 4.5
t5.5 10.5v61q0 6 -5.5 10.5t-12.5 4.5h-146h-2v0v0v0zM684 105q-6 0 -11 -5t-5 -10v-61q0 -6 5.5 -10.5t12.5 -4.5h146q7 0 12.5 4.5t5.5 10.5v61q0 6 -5.5 10.5t-12.5 4.5h-146h-2v0v0v0zM684 105zM684 215h-636q-15 -5 -24 -18t-9 -28v-157q0 -20 14.5 -28.5t29 -0.5
t14.5 27v149l611 2v54zM978 214l-334 1v-54l307 1v-150q0 -19 15.5 -27t30 -0.5t13.5 27.5v157q0 15 -9 27.5t-23 17.5z" />
    <glyph glyph-name="xiangmu" unicode="&#xe60b;" 
d="M985 581l-468 268l-470 -268l469 -268zM47 447v-67l469 -268l469 268v67l-469 -268zM47 246v-67l469 -268l469 268v67l-469 -268z" />
    <glyph glyph-name="suo" unicode="&#xe642;" 
d="M808 478h-53v108q0 101 -71 172t-172 71t-172 -71t-71 -172v-108h-53q-23 0 -38.5 -15.5t-15.5 -38.5v-431q0 -22 15.5 -38t38.5 -16h592q23 0 38.5 16t15.5 38v431q0 23 -15.5 38.5t-38.5 15.5zM566 168v-53q0 -17 -12 -29t-28.5 -12t-28.5 12t-12 29v53q-27 23 -27 54
q0 29 19.5 48.5t48 19.5t48 -19.5t19.5 -48.5q0 -31 -27 -54zM674 478h-324v108q0 67 47.5 114.5t114.5 47.5t114.5 -47.5t47.5 -114.5v-108z" />
    <glyph glyph-name="dunpai" unicode="&#xe60a;" 
d="M920 747q-210 9 -397 141l-11 8l-11 -8q-186 -132 -397 -141h-22v-342q0 -124 53.5 -235.5t151 -190t220.5 -106.5l6 -1l4 1q123 28 220.5 106.5t151 190t53.5 235.5v342h-22v0zM512 832q161 -110 373 -127v-328q-6 -76 -30.5 -142t-56 -110t-73 -80.5t-75 -56.5
t-70 -35.5t-49.5 -19t-21 -5.5v1q-8 2 -20 5.5t-48 18.5t-69 35t-74.5 56.5t-73 80.5t-56 110.5t-30.5 142.5v327h6q208 18 367 127v0zM262 400l175 -180v0q11 -21 33.5 -21t33.5 21v0l262 278q16 9 16 28q0 13 -9.5 22.5t-22.5 9.5q-21 0 -29 -19l-250 -266h-1h-2l-162 170
q-9 18 -28 18q-14 0 -23.5 -9.5t-9.5 -23.5q0 -19 17 -28v0z" />
    <glyph glyph-name="icon86" unicode="&#xe781;" 
d="M122 774h360v-360h-360v360zM542 774h360v-360h-360v360zM122 354h360v-360h-360v360zM542 354h360v-360h-360v360z" />
    <glyph glyph-name="file" unicode="&#xe687;" 
d="M875 3h-720q0 1 -5.5 0t-14.5 2.5t-17 8.5t-14 20t-6 37v618q0 2 0.5 7t4.5 16.5t10.5 20.5t21 16.5t34.5 7.5h252q2 -1 9 0.5t21.5 -7t25.5 -26.5l38 -62q9 -10 30 -10h325q0 -1 5.5 0t14 -2t17 -8t14.5 -17.5t6 -30.5v-527l0.5 -6.5t-1.5 -16t-6.5 -19t-16 -16
t-28.5 -6.5v0zM821 487q0 12 -8 20t-20 8h-560q-13 0 -21.5 -8t-8.5 -20v-2q0 -13 8.5 -21.5t21.5 -8.5h560q12 0 20 8.5t8 21.5v2z" />
    <glyph glyph-name="fankui" unicode="&#xe7b9;" 
d="M597 713l-597 -596v-203h206l597 595zM429 7h595v-118h-595v118zM968 674q2 3 4.5 8.5t3 20.5t-8 27t-42.5 46t-64 62l-29 28q-2 1 -4 2.5t-9 5t-14 5t-16.5 0t-17.5 -7.5q-9 -7 -36.5 -33t-49.5 -49l-23 -23l206 -204z" />
    <glyph glyph-name="suo1" unicode="&#xe64e;" 
d="M791 497h-5q-8 0 -9.5 1.5t-1.5 11.5v4v66q-3 107 -78 181q-62 61 -145.5 72.5t-159.5 -30.5q-131 -72 -136 -226q-1 -11 -0.5 -30t0.5 -29q0 -18 -1.5 -19.5t-18.5 -1.5q-27 0 -44.5 -17.5t-17.5 -44.5v-433q0 -28 19 -46.5t44 -17.5h275h276q29 0 46 17.5t17 46.5v428
q0 13 -1 18q-4 22 -20.5 35.5t-38.5 13.5zM307 571q0 67 36.5 121t96.5 78q47 20 95.5 13.5t88 -29.5t67 -64.5t33.5 -91.5q2 -20 2.5 -32.5t0 -29.5t-0.5 -32q0 -7 -10 -7h-126h-74h-196q-10 0 -11.5 1.5t-1.5 11.5v61zM797 14q0 -8 -6 -14t-14 -6h-529q-8 0 -14 6t-6 14
v404q0 8 6 13.5t14 5.5h529q8 0 14 -5.5t6 -13.5v-404zM524 373q-26 3 -48 -10.5t-31 -37.5t-2.5 -49.5t27.5 -40.5q12 -9 13 -26v-58q0 -5 -0.5 -29.5t1.5 -31.5q2 -12 10.5 -19t20.5 -7q24 -1 30 24q1 5 1 14v102q0 20 15 31q38 27 30 77q-5 24 -23.5 41.5t-43.5 19.5z
" />
    <glyph glyph-name="xiugai" unicode="&#xe67c;" 
d="M340 335q-1 -1 -1 -2l-46 -168q-4 -16 7 -28q9 -8 21 -8q4 0 7 1l167 45v0h1q3 0 5 2l446 446q20 21 20 51q0 35 -26 61l-42 42q-26 26 -61 26q-30 0 -51 -20l-446 -446v-1.5t-1 -0.5zM903 667l-44 -45l-72 73l44 44q5 5 13.5 4.5t14.5 -6.5l42 -42q7 -7 7 -16
q0 -7 -5 -12zM420 328l322 322l72 -73l-322 -321zM361 198l23 85l62 -62zM931.5 490q-12.5 0 -21.5 -9t-9 -22v-416q0 -16 -11.5 -27.5t-28.5 -11.5h-703q-17 0 -28.5 11.5t-11.5 27.5v679q0 16 11.5 28t28.5 12h453q13 0 22 9t9 21.5t-9.5 21.5t-21.5 9h-458q-40 0 -68 -28
t-28 -68v-688q0 -40 28 -68.5t68 -28.5h713q40 0 68 28.5t28 68.5v420q0 13 -9 22t-21.5 9z" />
  </font>
</defs>
</svg>
